<?xml version="1.0" encoding="utf-8"?>
<!-- Generator: Adobe Illustrator 25.2.0, SVG Export Plug-In . SVG Version: 6.00 Build 0)  -->
<svg version="1.1" id="Layer_1" xmlns="http://www.w3.org/2000/svg" xmlns:xlink="http://www.w3.org/1999/xlink" x="0px" y="0px"
	 viewBox="0 0 100 125" style="enable-background:new 0 0 100 125;" xml:space="preserve">
<style type="text/css">
	.st0{fill:none;}
</style>
<g>
	<path class="st0" d="M27.9,76.6L27.9,76.6c3.1,0,6-1.2,8.2-3.4c2.2-2.2,3.4-5.1,3.4-8.2c0-6.4-5.2-11.5-11.5-11.5
		c-3.1,0-6,1.2-8.2,3.4c-2.2,2.2-3.4,5.1-3.4,8.2C16.3,71.5,21.5,76.6,27.9,76.6z"/>
	<path class="st0" d="M35.4,51.2c4.9,2.7,8.3,7.9,8.3,13.9c0,0.5,0,0.9-0.1,1.4l12.8,0c0-0.4-0.1-0.9-0.1-1.4
		c0-4.2,1.6-8.2,4.6-11.2c0.1-0.1,0.3-0.3,0.5-0.4c-0.5-0.7-1-1.4-1.6-2.1c-2.6,1.5-8.6,4.2-15.2,2.3c-0.7-0.2-1.3-0.4-1.9-0.7
		c-0.8-0.3-1.5-0.7-2.2-1.2l-0.2-0.2l-2.7-4.1L27.3,31.6c-0.6-0.9-1.8-1.1-2.6-0.6c-0.4,0.3-0.7,0.7-0.8,1.2c-0.1,0.5,0,1,0.3,1.4
		l11.1,17.1L35.4,51.2z"/>
	<path class="st0" d="M72.1,76.6L72.1,76.6c3.1,0,6-1.2,8.2-3.4c2.2-2.2,3.4-5.1,3.4-8.2c0-6.4-5.2-11.5-11.5-11.5
		c-3.1,0-6,1.2-8.2,3.4c-2.2,2.2-3.4,5.1-3.4,8.2C60.6,71.5,65.7,76.6,72.1,76.6z"/>
	<path class="st0" d="M49.6,42.3c3.1,0,6-1.2,8.1-3.4c2.2-2.2,3.4-5.1,3.4-8.2c0-6.4-5.2-11.5-11.5-11.5c-3.1,0-6,1.2-8.2,3.4
		c-2.2,2.2-3.4,5.1-3.4,8.1C38.1,37.2,43.2,42.3,49.6,42.3z"/>
	<path class="st0" d="M18.1,85.7c-1.8,2.1-5.2,7.1-5.9,15l31.3,0c-0.2-3.4-1.2-10.3-5.4-15C33.7,88.4,25.6,90.7,18.1,85.7z"/>
	<path class="st0" d="M62.4,85.7c-1.8,2.1-5.3,7.1-5.9,15l31.3,0c-0.2-3.4-1.2-10.3-5.4-15C77.9,88.4,69.9,90.7,62.4,85.7z"/>
	<path d="M27.9,80.9L27.9,80.9c4.2,0,8.2-1.6,11.2-4.6c1.6-1.6,2.8-3.5,3.6-5.5l14.7,0c2.3,5.9,8,10.2,14.7,10.2h0
		c4.2,0,8.2-1.6,11.2-4.6c3-3,4.6-7,4.6-11.2c0-8.7-7.1-15.8-15.8-15.8c-2.5,0-5,0.6-7.2,1.7c-0.9-1.4-2-2.7-3.3-3.9
		c-0.8-0.7-1.9-0.8-2.7-0.1c-0.1,0.1-8.8,6.5-17.1,0.6l-4.4-6.8c2.9,3.5,7.3,5.8,12.2,5.8h0c4.2,0,8.2-1.6,11.2-4.6
		c3-3,4.6-7,4.6-11.2c0-8.7-7.1-15.8-15.8-15.8c-4.2,0-8.2,1.6-11.2,4.6c-3,3-4.6,7-4.6,11.2c0,2.6,0.6,5,1.7,7.1l-5.3-8.2
		c-1.6-2.5-4.9-3.2-7.4-1.6c-2.5,1.6-3.2,4.9-1.6,7.4l9,13.9c-0.7-0.1-1.5-0.2-2.3-0.2c-4.2,0-8.2,1.6-11.2,4.6c-3,3-4.6,7-4.6,11.2
		C12.1,73.8,19.2,80.9,27.9,80.9z M41.4,22.7c2.2-2.2,5.1-3.4,8.2-3.4c6.4,0,11.5,5.2,11.5,11.5c0,3.1-1.2,6-3.4,8.2
		c-2.2,2.2-5.1,3.4-8.1,3.4c-6.4,0-11.5-5.2-11.5-11.5C38.1,27.7,39.3,24.8,41.4,22.7z M63.9,56.9c2.2-2.2,5.1-3.4,8.2-3.4
		c6.4,0,11.5,5.2,11.5,11.5c0,3.1-1.2,6-3.4,8.2c-2.2,2.2-5.1,3.4-8.2,3.4h0c-6.4,0-11.5-5.2-11.5-11.5C60.6,62,61.8,59.1,63.9,56.9
		z M24.1,33.7c-0.3-0.4-0.4-0.9-0.3-1.4c0.1-0.5,0.4-0.9,0.8-1.2c0.9-0.6,2.1-0.3,2.6,0.6l10.3,15.9l2.7,4.1l0.2,0.2
		c0.7,0.4,1.5,0.8,2.2,1.2c0.6,0.3,1.3,0.5,1.9,0.7c6.6,1.9,12.6-0.8,15.2-2.3c0.6,0.7,1.1,1.4,1.6,2.1c-0.2,0.1-0.3,0.3-0.5,0.4
		c-3,3-4.6,7-4.6,11.2c0,0.5,0,0.9,0.1,1.4l-12.8,0c0-0.5,0.1-0.9,0.1-1.4c0-6-3.4-11.2-8.3-13.9l-0.2-0.4L24.1,33.7z M19.7,56.9
		c2.2-2.2,5.1-3.4,8.2-3.4c6.4,0,11.5,5.2,11.5,11.5c0,3.1-1.2,6-3.4,8.2c-2.2,2.2-5.1,3.4-8.2,3.4h0c-6.4,0-11.5-5.2-11.5-11.5
		C16.3,62,17.5,59.1,19.7,56.9z"/>
	<path d="M37.1,81.3c-0.4,0.3-9.4,7-17.9,0c-0.8-0.7-2-0.6-2.7,0c-0.3,0.3-8.4,7.5-8.6,21.5c0,0.6,0.2,1.1,0.6,1.5
		c0.4,0.4,0.9,0.6,1.5,0.6l35.7,0c1.1,0,2.1-0.9,2.1-2.1c0-0.6,0.4-13.9-8-21.6C39.1,80.7,38,80.6,37.1,81.3z M12.2,100.7
		c0.6-7.9,4.1-12.9,5.9-15c7.5,5,15.6,2.6,20,0c4.2,4.8,5.2,11.7,5.4,15L12.2,100.7z"/>
	<path d="M84.1,81.4c-0.8-0.7-1.9-0.7-2.7-0.1c-0.4,0.3-9.4,7-17.9,0c-0.8-0.7-2-0.6-2.7,0c-0.3,0.3-8.4,7.5-8.6,21.5
		c0,0.6,0.2,1.1,0.6,1.5c0.4,0.4,0.9,0.6,1.5,0.6l35.7,0c1.1,0,2.1-0.9,2.1-2.1C92.1,102.4,92.5,89.1,84.1,81.4z M56.5,100.7
		c0.6-7.9,4.1-12.9,5.9-15c7.5,5,15.6,2.6,20,0c4.2,4.8,5.2,11.7,5.4,15L56.5,100.7z"/>
</g>
</svg>
