<?xml version="1.0" encoding="utf-8"?>
<!-- Generator: Adobe Illustrator 25.2.0, SVG Export Plug-In . SVG Version: 6.00 Build 0)  -->
<svg version="1.1" id="Layer_1" xmlns="http://www.w3.org/2000/svg" xmlns:xlink="http://www.w3.org/1999/xlink" x="0px" y="0px"
	 viewBox="0 0 66 82.5" style="enable-background:new 0 0 66 82.5;" xml:space="preserve">
<g>
	<g>
		<path d="M49,52.4c-0.4-0.4-1-0.4-1.4,0l-0.9,0.9l-1.6-1.6l6.6-6.6c0.4-0.4,0.4-1,0-1.4c-4.2-4.2-10.9-4.4-15.3-0.7l-2.1-2.1
			l3.1-3.1c0.4-0.4,0.4-1,0-1.4L31.1,30l2.1-2.1l2.7,2.7c0.4,0.4,1,0.4,1.4,0c4.9-4.9,8.8-8.8,13.1-13.1c0.4-0.4,0.4-1,0-1.4
			l-6.8-6.8c-0.4-0.4-1-0.4-1.4,0c-4.9,4.9-8.8,8.8-13.1,13.1c-0.4,0.4-0.4,1,0,1.4l2.7,2.7l-2.1,2.1l-6.3-6.3c-0.4-0.4-1-0.4-1.4,0
			l-1.3,1.3l-2.1-2.1c-0.4-0.4-1-0.4-1.4,0l-3.7,3.7c-0.2,0.2-0.3,0.4-0.3,0.7c0,0.3,0.1,0.5,0.3,0.7l2.1,2.1L14.3,30
			c-0.4,0.4-0.4,1,0,1.4l6.3,6.3l-2.1,2.1L15.8,37c-0.4-0.4-1-0.4-1.4,0c-4.3,4.3-8.2,8.2-13.1,13.1c-0.4,0.4-0.4,1,0,1.4l6.8,6.8
			c0.4,0.4,1,0.4,1.4,0c4.9-4.9,8.8-8.8,13.1-13.1c0.4-0.4,0.4-1,0-1.4l-2.7-2.7L22,39l6.3,6.3c0.4,0.4,1,0.4,1.4,0l3.1-3.1l2.1,2.1
			c-3.7,4.5-3.5,11.1,0.7,15.3c0.4,0.4,1,0.4,1.4,0l6.6-6.6l1.6,1.6l-0.9,0.9c-0.4,0.4-0.4,1,0,1.4s1,0.4,1.4,0l3.2-3.2
			C49.4,53.4,49.4,52.8,49,52.4z M42.8,11.4l5.4,5.4l-3,3l-5.4-5.4L42.8,11.4z M38.3,15.9l5.4,5.4L41,24l-5.4-5.4L38.3,15.9z
			 M34.2,20l5.4,5.4l-3,3L31.2,23L34.2,20z M8.8,56.2l-5.4-5.4l3-3l5.4,5.4L8.8,56.2z M13.3,51.7l-5.4-5.4l2.7-2.7L16,49L13.3,51.7z
			 M17.4,47.6L12,42.2l3-3c0.2,0.2,5.7,5.7,5.4,5.4L17.4,47.6z M15.6,25.9l2.3-2.3l1.4,1.4L17,27.3L15.6,25.9z M16.4,30.6l6.3-6.3
			l5.6,5.6L22,36.2L16.4,30.6z M29,43.3l-5.6-5.6l6.3-6.3l5.6,5.6L29,43.3z M49.6,44.4l-5.9,5.9l-5.9-5.9
			C41.2,41.6,46.1,41.6,49.6,44.4z M36.4,57.6c-2.8-3.4-2.8-8.3,0-11.8l5.9,5.9L36.4,57.6z"/>
	</g>
	<g>
		<path d="M64,54.8c-0.6,0-1,0.4-1,1C63,64.2,56.2,71,47.8,71c-0.6,0-1,0.4-1,1s0.4,1,1,1C57.3,73,65,65.3,65,55.8
			C65,55.2,64.6,54.8,64,54.8z"/>
	</g>
	<g>
		<path d="M46.8,66.3c0,0.6,0.4,1,1,1c6.4,0,11.5-5.2,11.5-11.5c0-0.6-0.4-1-1-1s-1,0.4-1,1c0,5.3-4.3,9.5-9.5,9.5
			C47.2,65.3,46.8,65.8,46.8,66.3z"/>
	</g>
	<g>
		<path d="M51.6,55.8c0,2.1-1.7,3.9-3.9,3.9c-0.6,0-1,0.4-1,1s0.4,1,1,1c3.2,0,5.9-2.6,5.9-5.9c0-0.6-0.4-1-1-1
			C52.1,54.8,51.6,55.2,51.6,55.8z"/>
	</g>
</g>
</svg>
