<?xml version="1.0" encoding="utf-8"?>
<!-- Generator: Adobe Illustrator 25.2.0, SVG Export Plug-In . SVG Version: 6.00 Build 0)  -->
<svg version="1.1" id="Layer_1" xmlns="http://www.w3.org/2000/svg" xmlns:xlink="http://www.w3.org/1999/xlink" x="0px" y="0px"
	 viewBox="0 0 100 125" style="enable-background:new 0 0 100 125;" xml:space="preserve">
<g>
	<path d="M8.8,61.5L4.5,49l12.3-4.2L21,57.2L8.8,61.5z M8.3,50.9l2.3,6.8l6.7-2.3l-2.3-6.8L8.3,50.9z"/>
</g>
<g>
	<path d="M17.5,56.1L14.7,48l30.7-10.6l2.8,8.1L17.5,56.1z M18.5,49.8l0.9,2.5l25-8.6l-0.9-2.5L18.5,49.8z"/>
</g>
<g>
	<path d="M47.3,52.2l-6.6-19L70,23l6.6,19.1L47.3,52.2z M44.5,35l4.6,13.4l23.6-8.2l-4.6-13.4L44.5,35z"/>
</g>
<g>
	<rect x="46.3" y="50.3" width="3" height="55.9"/>
</g>
<g>
	<rect x="6.5" y="75.7" transform="matrix(0.3283 -0.9446 0.9446 0.3283 -48.0426 86.8468)" width="61.1" height="3"/>
</g>
<g>
	<rect x="57.6" y="49" transform="matrix(0.9447 -0.3279 0.3279 0.9447 -22.4485 23.6987)" width="3" height="58.9"/>
</g>
<g>
	<rect x="68.6" y="91.2" transform="matrix(0.9447 -0.3279 0.3279 0.9447 -26.6372 28.1323)" width="3" height="3.7"/>
</g>
<g>
	<rect x="60.6" y="54" transform="matrix(0.9447 -0.3278 0.3278 0.9447 -19.4727 24.2015)" width="3" height="31.8"/>
</g>
<g>
	<rect x="34.8" y="82.1" width="26" height="3"/>
</g>
<g>
	<g>
		<path d="M86.4,41.3c-7.1,0-9.3-4.6-9.4-4.8l-4.5-13l2.8-1l4.5,12.9c0,0.1,2.6,4.8,12,2.1l-7.6-21.8l2.8-1l8.6,24.7l-1.4,0.5
			C91.1,40.9,88.5,41.3,86.4,41.3z"/>
	</g>
	<g>
		<path d="M78.2,40l-4.5-12.9c-0.1-0.5-1.9-8.8,11.3-13.4l1.4-0.5L95,37.9l-2.8,1l-7.6-21.8c-9.1,3.7-8.1,9-8.1,9.2L81,39.1L78.2,40
			z"/>
	</g>
</g>
</svg>
